<?xml version='1.0' encoding='utf-8'?>
<svg xmlns="http://www.w3.org/2000/svg" viewBox="0 0 744.09 1052.4">
 <defs>
  <linearGradient id="a" x1=".45" x2=".44" y1=".03125" y2=".97656">
   <stop stop-color="#fff" stop-opacity="0" offset="0"/>
   <stop stop-opacity=".202" offset="1"/>
  </linearGradient>
 </defs>
 <g stroke="#000">
  <g fill-rule="evenodd" stroke-width="6.25">
   <g fill="#007f00">
    <rect x="468.46" y="606.77" width="70.866" height="70.866"/>
    <rect x="468.46" y="677.3" width="70.866" height="70.866"/>
    <rect x="468.46" y="747.84" width="70.866" height="70.866"/>
    <rect x="468.46" y="819.1" width="70.866" height="70.866"/>
   </g>
   <g transform="matrix(-1.8369e-16 1 -1 -1.8369e-16 -534.7 990.89)" fill="#b30000">
    <rect x="-171.68" y="-927.78" width="70.866" height="70.866"/>
    <rect x="-171.68" y="-857.24" width="70.866" height="70.866"/>
    <rect x="-171.68" y="-786.7" width="70.866" height="70.866"/>
    <rect x="-242.22" y="-786.7" width="70.866" height="70.866"/>
   </g>
   <g transform="matrix(6.123e-17 -1 1 6.123e-17 -1007.2 -292.43)" fill="#00c">
    <rect transform="matrix(-1.8369e-16 1 -1 -1.8369e-16 -27.768 675.33)" x="726.9" y="942.64" width="70.866" height="70.866"/>
    <rect transform="matrix(-1.8369e-16 1 -1 -1.8369e-16 -27.768 675.33)" x="726.9" y="1013.2" width="70.866" height="70.866"/>
    <rect transform="matrix(-1.8369e-16 1 -1 -1.8369e-16 -27.768 675.33)" x="726.9" y="1083.7" width="70.866" height="70.866"/>
    <rect transform="rotate(90)" x="1331.7" y="1040.2" width="70.866" height="70.866"/>
   </g>
   <g fill="#cdcd00">
    <rect x="181.05" y="605.22" width="70.866" height="70.866"/>
    <rect x="251.59" y="677.2" width="70.866" height="70.866"/>
    <rect x="251.59" y="747.74" width="70.866" height="70.866"/>
    <rect x="181.05" y="676.48" width="70.866" height="70.866"/>
   </g>
  </g>
  <g font-family="Arial" font-size="27" stroke-width="0" text-anchor="middle">
   <text x="229.905518" y="792.637817" fill="#ff0">Div</text>
   <text x="278.905518" y="792.637817" fill="#f00">erse</text>
  </g>
 </g>
 <g fill-rule="evenodd">
  <rect x="321.28" y="142.43" width="218.09" height="217.55" fill="url(#a)" stroke-width="1.25"/>
  <g fill="#7f00ff" stroke="#000" stroke-width="6.25">
   <rect x="323.56" y="330.34" width="70.866" height="70.866"/>
   <rect x="466.02" y="330.75" width="70.866" height="70.866"/>
   <rect x="394.53" y="401.43" width="70.866" height="70.866"/>
   <rect x="394.84" y="330.39" width="70.866" height="70.866"/>
  </g>
 </g>
</svg>